<?xml version="1.0" encoding="UTF-8"?>
<svg version="1.1" xmlns="http://www.w3.org/2000/svg" width="2000" height="2000">
<path d="M0 0 C0.89041992 0.17160645 1.78083984 0.34321289 2.69824219 0.52001953 C32.70227106 6.52189803 58.67287159 18.96170413 81 40 C81.68707031 40.62261719 82.37414063 41.24523437 83.08203125 41.88671875 C89.08021945 47.52998457 93.54297852 54.13067309 98 61 C98.7321875 62.09828125 99.464375 63.1965625 100.21875 64.328125 C131.60726417 112.82569704 138.58912287 178.54611754 143 235 C143.06058594 235.76975159 143.12117188 236.53950317 143.18359375 237.33258057 C147.28735811 290.54330022 145.92922739 344.7675245 143 398 C142.93683594 399.16805176 142.87367188 400.33610352 142.80859375 401.53955078 C138.65289108 478.04318497 130.92029935 554.26721297 100.48900914 789.57512486 C95.74856205 824.18550159 91.06864325 858.80201664 86.57421875 893.4453125 C86.42037566 894.63022203 86.42037566 894.63022203 86.26342463 895.83906913 C83.88370601 914.17024335 81.54582951 932.50615842 79.27968121 950.85173988 C63.46391664 1078.87520654 63.46391664 1078.87520654 41 1129 C40.52312744 1130.06927734 40.52312744 1130.06927734 40.03662109 1131.16015625 C27.07916268 1159.71784238 6.24781429 1179.56678257 -22.9375 1190.8125 C-46.86353364 1198.69025969 -76.80530519 1199.3020529 -101 1192 C-101.70705078 1191.79101074 -102.41410156 1191.58202148 -103.14257812 1191.36669922 C-113.47217459 1188.19512349 -122.28928921 1183.34282833 -131 1177 C-131.97839844 1176.2884375 -132.95679688 1175.576875 -133.96484375 1174.84375 C-179.82559332 1139.33865356 -188.12566104 1062.48738718 -195.9609375 1008.73095703 C-196.08922817 1007.8542511 -196.21751884 1006.97754517 -196.34969711 1006.07427239 C-199.01993513 987.71683149 -201.03936233 969.32050151 -202.8645668 950.86266565 C-203.32145471 946.2654607 -203.78958116 941.66939739 -204.2565918 937.07321167 C-204.96852781 930.05847149 -205.67737354 923.04343135 -206.38263226 916.02801669 C-207.84151934 901.52066849 -209.3290509 887.01634454 -210.82421875 872.51269531 C-211.31715415 867.72992103 -211.81007129 862.94714486 -212.30297852 858.16436768 C-212.42672568 856.96376323 -212.55047285 855.76315879 -212.67796993 854.5261724 C-214.34563849 838.3412582 -216.00220562 822.15520595 -217.65950012 805.96922684 C-218.95753764 793.2930143 -220.25727488 780.61698139 -221.56152344 767.94140625 C-226.90698058 715.98176225 -232.18877509 664.01893096 -237.01171875 612.0078125 C-237.10211174 611.03531004 -237.19250473 610.06280759 -237.2856369 609.06083536 C-244.90474842 527.07834653 -251.24755545 444.95761426 -254.83856201 362.69335938 C-254.94482401 360.26230982 -255.05241393 357.83131788 -255.16143799 355.40039062 C-256.71279984 320.73924737 -257.22409086 286.10398554 -257.30371475 251.41196823 C-257.31238268 248.35389024 -257.32622278 245.29587546 -257.34140015 242.23782349 C-257.44106207 220.32312797 -257.431361 198.70683737 -254 177 C-253.8794223 176.23088287 -253.7588446 175.46176575 -253.63461304 174.66934204 C-252.94438828 170.41604384 -252.11242576 166.2078799 -251.1875 162 C-250.92888184 160.7941626 -250.67026367 159.5883252 -250.40380859 158.34594727 C-248.197129 148.34237765 -245.51881988 138.61963097 -242 129 C-241.70899414 128.19836426 -241.41798828 127.39672852 -241.11816406 126.57080078 C-232.07190462 102.02145438 -219.36473788 80.53533011 -202 61 C-201.54625 60.47921875 -201.0925 59.9584375 -200.625 59.421875 C-194.31184331 52.17609289 -187.62613414 45.88064295 -180 40 C-178.99195313 39.18789062 -177.98390625 38.37578125 -176.9453125 37.5390625 C-128.66359271 -1.09227496 -59.80136594 -11.70225279 0 0 Z " fill="#C8E83F" transform="translate(1056,147)"/>
<path d="M0 0 C0.82433533 0.00182281 1.64867065 0.00364563 2.49798584 0.00552368 C15.94371218 0.05533709 29.08929226 0.68851971 42.3125 3.3125 C43.15296875 3.47878906 43.9934375 3.64507813 44.859375 3.81640625 C82.76823091 11.66563255 116.69715418 31.53223763 144.3125 58.3125 C145.13363281 59.09367187 145.95476562 59.87484375 146.80078125 60.6796875 C152.46494343 66.1775444 157.46899303 72.0851339 162.3125 78.3125 C162.74320801 78.86147949 163.17391602 79.41045898 163.61767578 79.97607422 C180.73727572 101.94468516 192.71934469 127.69459174 198.5625 154.9375 C198.71356201 155.63979736 198.86462402 156.34209473 199.02026367 157.06567383 C201.8913746 171.39855754 202.72103956 185.54951874 202.6875 200.125 C202.68668427 201.46736725 202.68668427 201.46736725 202.68585205 202.83685303 C202.64287947 218.29632671 201.5645605 233.15354218 198.3125 248.3125 C198.09819336 249.31361816 197.88388672 250.31473633 197.66308594 251.34619141 C187.4194698 297.41264273 161.48055411 334.92791797 123.3125 362.3125 C122.69826172 362.76077148 122.08402344 363.20904297 121.45117188 363.67089844 C86.47752637 389.02775119 43.78301894 399.81999706 1.0625 399.625 C0.20743866 399.62284485 -0.64762268 399.6206897 -1.52859497 399.61846924 C-14.46030237 399.56627599 -27.01599406 399.10515953 -39.6875 396.3125 C-41.1094165 396.00650879 -41.1094165 396.00650879 -42.56005859 395.69433594 C-80.25393709 387.39044159 -114.3186209 370.72470506 -142.609375 344.21484375 C-144.72037347 342.23605487 -144.72037347 342.23605487 -147.25 340.2890625 C-150.87683497 337.34807132 -153.6886146 333.87481236 -156.6875 330.3125 C-157.35652344 329.55453125 -158.02554688 328.7965625 -158.71484375 328.015625 C-177.75222454 305.84551066 -189.36933541 278.68770649 -195.4375 250.3125 C-195.63633789 249.38856445 -195.83517578 248.46462891 -196.04003906 247.51269531 C-199.24962293 231.58589236 -200.06840158 215.70952961 -200 199.5 C-199.99676727 198.1151088 -199.99676727 198.1151088 -199.99346924 196.70223999 C-199.94358781 183.37741158 -199.67881798 170.35422323 -196.6875 157.3125 C-196.47818848 156.38002441 -196.26887695 155.44754883 -196.05322266 154.48681641 C-191.8668501 136.29253909 -185.40558546 119.79201078 -176.6875 103.3125 C-176.36523438 102.69987305 -176.04296875 102.08724609 -175.7109375 101.45605469 C-170.87042706 92.35058231 -165.18716541 84.27581187 -158.6875 76.3125 C-157.86765625 75.28769531 -157.0478125 74.26289062 -156.203125 73.20703125 C-128.15927243 38.67783561 -91.17792661 14.86611583 -47.875 4.625 C-47.03469238 4.42229492 -46.19438477 4.21958984 -45.32861328 4.01074219 C-30.39942428 0.64950024 -15.25135573 -0.07068882 0 0 Z " fill="#C8E83F" transform="translate(998.6875,1456.6875)"/>
<path d="M0 0 C6.46290346 4.15696467 11.71890186 9.23571175 17.10443592 14.6726656 C18.17713668 15.74074764 19.25070618 16.80795775 20.32505816 17.87437886 C23.250622 20.78335997 26.16371978 23.70454291 29.07477129 26.62803686 C32.22567679 29.78803597 35.38812427 32.93644939 38.54906178 36.08640766 C44.72967424 42.24927681 50.89947666 48.42285847 57.06541202 54.60040847 C62.07824723 59.62229341 67.09499271 64.64024082 72.1145277 69.65542889 C72.83012354 70.37041179 73.54571937 71.08539469 74.28299993 71.82204374 C75.73692275 73.27468761 77.19085452 74.72732253 78.64479514 76.17994859 C92.26274145 89.78650158 105.86842308 103.40526529 119.46991196 117.02826687 C131.13181962 128.70804819 142.80418005 140.37729716 154.48424244 152.03892231 C168.0615131 165.59477084 181.63225064 179.15710526 195.19267672 192.72980565 C196.63953942 194.17794249 198.08641045 195.626071 199.53328991 197.07419109 C200.24510533 197.78662362 200.95692075 198.49905614 201.69030634 199.23307753 C206.69834199 204.24456176 211.71099357 209.2514 216.72546291 214.25644588 C222.8384603 220.3582072 228.94424314 226.46708028 235.04098222 232.58508817 C238.14965533 235.7042493 241.26139569 238.82017203 244.38194561 241.92745495 C247.24202171 244.77555522 250.09259552 247.63282898 252.93607589 250.49749544 C253.96265548 251.52851908 254.99256836 252.55623758 256.02623723 253.58015362 C267.7442424 265.1960976 274.9976428 277.28273843 275.42686939 294.19053364 C274.92496968 308.68086411 270.19355286 319.92556761 260.24149036 330.42834187 C259.63964709 331.06774694 259.03780383 331.70715201 258.41772288 332.365933 C249.12385583 342.16734353 239.53076024 351.68156366 229.98175371 361.23319209 C227.0304525 364.18637042 224.0819956 367.14238657 221.13310719 370.09797382 C214.71258159 376.53196764 208.28838323 382.96228554 201.86333203 389.39175963 C197.84475397 393.41311559 193.82690736 397.43520183 189.80918407 401.45741177 C178.66111771 412.61764782 167.51212142 423.77695303 156.35966682 434.93280411 C155.64879616 435.64389433 154.9379255 436.35498456 154.20551331 437.08762297 C153.4930844 437.80027016 152.7806555 438.51291734 152.04663783 439.2471599 C150.60331177 440.69092941 149.15998727 442.13470047 147.71666431 443.57847309 C147.00074736 444.29461147 146.28483041 445.01074986 145.547219 445.7485894 C133.92648112 457.3732822 122.31252412 469.00472467 110.70143888 480.63905805 C98.74992453 492.61430733 86.79277136 504.58390212 74.82996625 516.5478726 C68.12532142 523.25343213 61.42309073 529.96136493 54.7270956 536.67556286 C49.03220715 542.38588013 43.33216887 548.09099401 37.62544052 553.78947984 C34.71796309 556.69306282 31.81291635 559.59896866 28.9144392 562.51153851 C26.25566778 565.18311852 23.58992225 567.84753635 20.91871073 570.50667626 C19.50882435 571.91370444 18.1062567 573.32805481 16.70406133 574.74274772 C4.43384057 586.91891736 -8.6239321 596.06553364 -26.46766186 596.06553364 C-38.28370841 595.45104801 -47.23778855 592.74088169 -57.01063061 586.06553364 C-57.62680248 585.65947895 -58.24297436 585.25342426 -58.87781811 584.83506489 C-69.97308166 576.52639978 -74.87924209 563.2233054 -77.01063061 550.06553364 C-78.58659436 538.08087909 -74.27697173 525.03685549 -67.08211762 515.51266354 C-61.96348072 509.25407925 -56.61615412 503.38870705 -50.88000011 497.69439411 C-50.00659719 496.81928234 -49.13319427 495.94417056 -48.23332459 495.04254025 C-45.8401023 492.64661946 -43.44253983 490.25520688 -41.04292619 487.86569798 C-38.44431023 485.27579654 -35.85155657 482.68003709 -33.25805187 480.08501911 C-28.77447115 475.60039455 -24.28727123 471.1194185 -19.79752445 466.64096737 C-13.30627633 460.16603971 -6.82062085 453.68553344 -0.33627523 447.20369413 C10.18673521 436.68505057 20.71419523 426.1708722 31.24449635 415.65952778 C41.46788114 405.45452794 51.68914316 395.24740959 61.90758228 385.03745747 C62.53846083 384.40710436 63.16933939 383.77675126 63.81933547 383.12729654 C66.98455734 379.96468492 70.14973779 376.80203185 73.31489766 373.63935816 C99.53330309 347.44165384 125.75894808 321.2512068 151.98936939 295.06553364 C150.57519603 291.85568932 148.88463714 289.71468589 146.40509224 287.24633408 C145.65649699 286.49622352 144.90790173 285.74611297 144.13662177 284.97327179 C143.31066841 284.15587259 142.48471505 283.33847339 141.6337328 282.49630451 C140.75899915 281.62268428 139.8842655 280.74906405 138.98302478 279.84897047 C136.55329086 277.42426382 134.11915341 275.00413432 131.68310869 272.58577788 C129.05695758 269.97647867 126.43662362 267.36134992 123.81566334 264.74683857 C119.27167694 260.21545504 114.724267 255.68753095 110.1747427 251.16170788 C103.58723849 244.60816009 97.00716466 238.04719084 90.42927333 231.48399598 C79.74430778 220.82293299 69.05635174 210.16487451 58.36510181 199.51011372 C57.72508681 198.87227896 57.08507181 198.23444421 56.42566242 197.57728112 C47.35295426 188.53576029 38.27725754 179.49724524 29.20033803 170.45995248 C28.56183898 169.82424006 27.92333994 169.18852765 27.26549244 168.53355122 C26.62777166 167.8986175 25.99005088 167.26368378 25.33300523 166.60950964 C14.68429733 156.00693789 4.04336793 145.39659874 -6.59126645 134.7799111 C-13.14687789 128.235983 -19.70891178 121.69863006 -26.27944211 115.16968102 C-30.78692965 110.68969791 -35.2870896 106.2024403 -39.78165247 101.70949089 C-42.37182783 99.12071779 -44.96511519 96.53528421 -47.56739521 93.95867443 C-50.39595262 91.15787164 -53.20855952 88.34155693 -56.0200758 85.52364826 C-56.83487555 84.72186411 -57.64967531 83.92007996 -58.48916596 83.09399933 C-69.38728944 72.09956575 -76.65786113 59.17504003 -77.26063061 43.50303364 C-77.03095481 29.55544909 -71.88590067 16.95100405 -62.44813061 6.69053364 C-45.54406812 -9.17964124 -19.76123975 -11.99950199 0 0 Z " fill="#C8E83F" transform="translate(1328.010630607605,705.9344663619995)"/>
<path d="M0 0 C10.70235215 7.8107776 17.93723791 19.11854046 20.87109375 32.10546875 C21.08357685 33.64149115 21.25196192 35.18440229 21.37109375 36.73046875 C21.43941406 37.52453125 21.50773437 38.31859375 21.578125 39.13671875 C22.09381579 51.20770309 17.98236603 63.8505015 10.34144115 73.21902084 C1.28556746 82.98922332 -8.14629721 92.38415451 -17.57511294 101.79274106 C-20.13369649 104.34695709 -22.68933883 106.90411329 -25.24536133 109.46089172 C-29.66123708 113.87728876 -34.07892234 118.29186881 -38.49788475 122.70517731 C-44.88675526 129.08587884 -51.27282287 135.4693797 -57.65823618 141.85354075 C-68.02125702 152.2143795 -78.38650339 162.57298877 -88.75317383 172.93017578 C-98.81620272 182.98400866 -108.87816812 193.03890396 -118.9387207 203.09521484 C-119.56011282 203.71634424 -120.18150494 204.33747363 -120.82172712 204.97742513 C-123.93943829 208.09383115 -127.05712873 211.2102579 -130.17480886 214.32669497 C-155.98962862 240.1311684 -181.80807057 265.93201512 -207.62890625 291.73046875 C-206.22256659 294.91470689 -204.55704742 297.04923655 -202.09706783 299.50002289 C-201.36015616 300.23906656 -200.62324449 300.97811023 -199.86400217 301.73954916 C-199.05108589 302.5445934 -198.23816961 303.34963763 -197.40061951 304.17907715 C-196.53954765 305.03974116 -195.67847579 305.90040517 -194.79131085 306.78714991 C-192.39964781 309.17572451 -190.00358016 311.55972138 -187.60559261 313.94193649 C-185.02031631 316.51241525 -182.44084765 319.08870978 -179.86073303 321.66436768 C-175.38721087 326.12869988 -170.91020813 330.58951673 -166.43099785 335.04814148 C-159.94348033 341.50611903 -153.46292629 347.97104925 -146.98434103 354.4379862 C-136.45826894 364.94503551 -125.9288405 375.44871358 -115.39624023 385.94921875 C-114.7657217 386.57781935 -114.13520316 387.20641995 -113.48557801 387.85406905 C-106.45972358 394.8584025 -99.43305244 401.86191577 -92.40545654 408.86450195 C-89.86168543 411.39924237 -87.31792128 413.93398977 -84.77416992 416.46875 C-84.14654093 417.09415733 -83.51891195 417.71956466 -82.8722639 418.36392373 C-72.38585447 428.81353802 -61.90532858 439.26903183 -51.42934853 449.72910166 C-44.97348193 456.17466279 -38.51264417 462.61515993 -32.045214 469.04911858 C-27.60623061 473.4658687 -23.1727298 477.88807327 -18.74339651 482.31450075 C-16.19223002 484.86362996 -13.63871952 487.41028352 -11.07842636 489.95024872 C14.70309823 515.53510053 14.70309823 515.53510053 18.37109375 527.10546875 C18.74234375 528.22695312 19.11359375 529.3484375 19.49609375 530.50390625 C22.92881975 543.16208337 21.62674879 556.20885441 15.7578125 567.9609375 C14.07713498 570.66269183 12.3005577 573.201766 10.37109375 575.73046875 C9.67886719 576.71080078 9.67886719 576.71080078 8.97265625 577.7109375 C1.60774027 587.3534431 -10.60527278 592.71559516 -22.3203125 594.44140625 C-36.42556281 595.67374217 -49.49095351 592.54326827 -60.62890625 583.73046875 C-68.44764916 576.83479594 -75.91452086 569.59231841 -83.28131104 562.21850586 C-84.29221382 561.21019639 -85.30332758 560.20209841 -86.31463027 559.19419003 C-89.05627151 556.46050736 -91.79487419 553.72379931 -94.53291082 550.98650694 C-97.5004534 548.0208344 -100.47083582 545.05800825 -103.4407959 542.09475708 C-109.91423779 535.63481435 -116.38397564 529.17117071 -122.85287952 522.70668411 C-126.89750116 518.66483639 -130.94285479 514.62372185 -134.98833466 510.58273315 C-146.20764301 499.37560108 -157.42601576 488.16753434 -168.64093399 476.95600891 C-169.35659719 476.24056528 -170.07226039 475.52512164 -170.80961035 474.7879979 C-171.52687679 474.07094975 -172.24414322 473.35390159 -172.983145 472.6151247 C-174.43635293 471.16236023 -175.88956241 469.70959731 -177.34277344 468.25683594 C-178.06359894 467.53623186 -178.78442444 466.81562779 -179.52709314 466.07318723 C-191.21987384 454.38435881 -202.91940009 442.70230701 -214.62182954 431.02313936 C-226.66026484 419.00843959 -238.69304515 406.98810042 -250.72020125 394.96210957 C-257.4638116 388.21941416 -264.20979802 381.47913545 -270.96204376 374.74508667 C-276.7072022 369.0153582 -282.44715602 363.28047835 -288.18048266 357.53890967 C-291.1022719 354.61322568 -294.02638527 351.68997296 -296.95716095 348.77328873 C-299.64551382 346.09774352 -302.32670639 343.41522495 -305.00261924 340.72723973 C-306.41873724 339.30826306 -307.84217841 337.89660613 -309.26596093 336.48532009 C-321.82169789 323.83320269 -330.3975339 311.15328951 -331.00390625 293.04296875 C-330.66485217 274.53460491 -321.72650894 262.19998232 -309.02177429 249.61540222 C-307.95369225 248.54270146 -306.88648214 247.46913196 -305.82006103 246.39477998 C-302.91107992 243.46921615 -299.98989698 240.55611837 -297.06640303 237.64506686 C-293.90640392 234.49416135 -290.7579905 231.33171387 -287.60803223 228.17077637 C-281.44516308 221.9901639 -275.27158142 215.82036148 -269.09403142 209.65442612 C-264.07214648 204.64159091 -259.05419907 199.62484543 -254.039011 194.60531044 C-253.3240281 193.88971461 -252.6090452 193.17411877 -251.87239615 192.43683821 C-250.41975227 190.98291539 -248.96711736 189.52898362 -247.5144913 188.075043 C-233.90793831 174.45709669 -220.2891746 160.85141506 -206.66617302 147.24992619 C-194.9863917 135.58801853 -183.31714273 123.9156581 -171.65551758 112.2355957 C-158.09966905 98.65832505 -144.53733463 85.0875875 -130.96463424 71.52716142 C-129.5164974 70.08029872 -128.06836888 68.63342769 -126.62024879 67.18654823 C-125.90781627 66.47473281 -125.19538375 65.76291739 -124.46136236 65.0295318 C-119.44987813 60.02149615 -114.44303988 55.00884457 -109.437994 49.99437523 C-103.33623269 43.88137784 -97.22735961 37.775595 -91.10935172 31.67885592 C-87.99019058 28.57018281 -84.87426786 25.45844245 -81.76698494 22.33789253 C-78.91888467 19.47781644 -76.06161091 16.62724262 -73.19694445 13.78376225 C-72.16592081 12.75718267 -71.13820231 11.72726979 -70.11428627 10.69360092 C-50.71080943 -8.88036071 -24.21486303 -15.69123125 0 0 Z " fill="#C8E83F" transform="translate(727.62890625,707.26953125)"/>
<path d="M0 0 C5.16069448 3.55358067 9.43970053 8.01755539 13.83465242 12.45417356 C14.91061397 13.52551829 15.9874446 14.59599078 17.0650599 15.66567206 C20.00429748 18.58830065 22.93103754 21.52316433 25.85575581 24.46031284 C29.01963603 27.63327587 32.19504474 30.79466655 35.36895418 33.95759153 C41.57711528 40.14799727 47.77445174 46.34913059 53.96793249 52.55422041 C59.00320014 57.59853383 64.04237332 62.6389146 69.08433962 67.67653227 C69.8028463 68.39442602 70.52135299 69.11231978 71.26163261 69.85196789 C72.72143396 71.3104903 74.18124426 72.76900375 75.64106342 74.22750834 C89.31861876 87.89366661 102.98390308 101.57204221 116.64500186 115.25464824 C128.35865771 126.98617425 140.08276121 138.7071734 151.81457186 150.42054319 C165.44933396 164.03388319 179.07756291 177.65370931 192.69548059 191.28390098 C194.14853753 192.73823207 195.60160282 194.19255484 197.05467653 195.64686918 C197.76955105 196.3623608 198.48442557 197.07785243 199.22096296 197.81502561 C204.25102822 202.84853974 209.28571013 207.87740731 214.32220888 212.90448332 C220.46267885 219.03371706 226.59593428 225.17006304 232.72014597 231.31554338 C235.84298867 234.44887449 238.96889969 237.57896689 242.1036191 240.7004199 C244.9766875 243.56151306 247.84025539 246.43177941 250.69672796 249.30943897 C251.72804791 250.34520326 252.76270169 251.37766172 253.80111077 252.40631863 C265.36493537 263.86989139 272.82523775 275.89054048 273.05187654 292.49183226 C272.74815468 321.58838734 248.7548228 339.13130101 229.75810409 358.13314748 C226.76656584 361.1265578 223.77787333 364.12280739 220.78875399 367.11863279 C214.27521554 373.64566084 207.7579848 380.16899349 201.23990822 386.69148922 C197.16472895 390.76944336 193.09028242 394.84812908 189.01596117 398.92694044 C177.71613894 410.2389364 166.41538398 421.54999871 155.11117029 432.85760641 C154.39007499 433.57892127 153.6689797 434.30023614 152.92603303 435.04340903 C152.20332762 435.76633272 151.48062221 436.4892564 150.73601663 437.23408687 C149.27180302 438.69874394 147.80759096 440.16340256 146.34338045 441.62806273 C145.61709834 442.35456627 144.89081623 443.08106981 144.14252557 443.82958861 C132.35608822 455.61998002 120.57642975 467.41711953 108.79964803 479.21715467 C96.68434629 491.35618385 84.56341297 503.48956599 72.43682444 515.61732018 C65.63772575 522.41733413 58.84104755 529.21972829 52.05059099 536.02837324 C46.27437346 541.82000961 40.49301867 547.60645594 34.70496331 553.38626282 C31.75509146 556.33223636 28.80766288 559.2805469 25.86678362 562.23549986 C23.17034835 564.94472071 20.46697069 567.64681352 17.75809695 570.34359582 C16.32550121 571.77332573 14.90024076 573.21039428 13.47533071 574.64778411 C1.54080963 586.49184703 -11.31829432 594.78525099 -28.58484221 594.96448851 C-42.23099102 594.34898564 -54.94215008 590.28686669 -64.70984221 580.38245726 C-73.85604008 569.67913809 -80.09156609 556.71416857 -79.48327971 542.30042601 C-76.99230824 521.58782763 -65.90418962 510.45799152 -51.64880705 496.2823596 C-50.62414275 495.2596203 -49.59971019 494.23664878 -48.57548857 493.21346617 C-46.39007865 491.03118858 -44.20313274 488.85046692 -42.01493788 486.67098188 C-38.5481811 483.21788195 -35.08536219 479.76085047 -31.62308073 476.30326414 C-24.27607401 468.96729908 -16.92482373 461.63559324 -9.57312346 454.30433226 C-1.62633706 446.3796245 6.31968634 438.45416017 14.26082981 430.52379715 C17.69629024 427.09328986 21.13416634 423.66522832 24.57397532 420.23908162 C26.71844539 418.10211676 28.86080034 415.96304079 31.00261164 413.82341146 C31.98889717 412.83898375 32.97603951 411.85541352 33.96414423 410.87281179 C38.82240595 406.04073817 43.52747896 401.16338516 47.9918561 395.96617651 C51.73765094 391.75097512 55.78233892 387.81956355 59.77624178 383.84144163 C60.76269853 382.85526758 61.74893389 381.86887203 62.73496675 380.88227415 C65.38925898 378.2276972 68.04660399 375.57619603 70.70454335 372.92527151 C73.49034488 370.14575797 76.27327955 367.36337694 79.05653048 364.5813098 C84.31710304 359.32383458 89.58021753 354.0689118 94.84426934 348.81492043 C100.84146969 342.82893099 106.83580143 336.84007243 112.82990396 330.85098124 C125.15072469 318.54058872 137.47511035 306.23377134 149.80187654 293.92933226 C148.38770318 290.71948794 146.69714429 288.57848451 144.21759939 286.11013269 C143.46900414 285.36002214 142.72040888 284.60991158 141.94912893 283.83707041 C141.12317556 283.0196712 140.2972222 282.202272 139.44623995 281.36010313 C138.5715063 280.4864829 137.69677266 279.61286266 136.79553193 278.71276909 C134.36579801 276.28806244 131.93166057 273.86793294 129.49561584 271.4495765 C126.86946473 268.84027728 124.24913078 266.22514854 121.62817049 263.61063719 C117.08418409 259.07925365 112.53677416 254.55132957 107.98724985 250.0255065 C101.39974564 243.4719587 94.81967181 236.91098945 88.24178048 230.3477946 C77.55681493 219.68673161 66.86885889 209.02867313 56.17760897 198.37391233 C55.53759397 197.73607758 54.89757897 197.09824282 54.23816957 196.44107974 C45.16546141 187.3995589 36.08976469 178.36104385 27.01284518 169.3237511 C26.37434614 168.68803868 25.73584709 168.05232626 25.07799959 167.39734983 C24.44027881 166.76241611 23.80255803 166.12748239 23.14551238 165.47330826 C12.49680448 154.87073651 1.85587508 144.26039735 -8.7787593 133.64370972 C-15.33437074 127.09978162 -21.89640462 120.56242868 -28.46693496 114.03347964 C-32.9744225 109.55349653 -37.47458244 105.06623892 -41.96914532 100.57328951 C-44.55932068 97.98451641 -47.15260804 95.39908283 -49.75488806 92.82247305 C-52.58344547 90.02167026 -55.39605236 87.20535555 -58.20756865 84.38744688 C-59.0223684 83.58566273 -59.83716815 82.78387858 -60.67665881 81.95779794 C-70.45794379 72.09007271 -78.14852255 60.09894451 -79.19812346 45.92933226 C-79.24968596 45.27964476 -79.30124846 44.62995726 -79.35437346 43.96058226 C-79.9293623 30.73583884 -75.0884803 18.45005572 -67.01062346 8.13636351 C-49.30339397 -11.11442381 -21.72983217 -13.15495907 0 0 Z " fill="#C8E83F" transform="translate(1682.1981234550476,707.0706677436829)"/>
<path d="M0 0 C11.46654748 8.36748059 17.78901196 20.1729665 21.0625 33.8125 C22.42318341 49.46035918 18.49553572 62.75596526 8.58890057 75.00057483 C5.01230093 79.22217613 1.15072038 83.11803693 -2.77380371 87.01431274 C-3.65451931 87.8967372 -4.53523492 88.77916165 -5.44263887 89.68832624 C-7.86092098 92.10931126 -10.28355531 94.52577854 -12.70822477 96.94035602 C-15.33207346 99.55550348 -17.95007356 102.17649515 -20.56881714 104.79675293 C-25.09770518 109.32668563 -29.63021736 113.8529652 -34.16526794 118.37672806 C-40.72204457 124.91719556 -47.27323938 131.46323097 -53.8231197 138.01060383 C-64.45206044 148.63517593 -75.0854524 159.2552814 -85.72167969 169.87255859 C-96.04890333 180.18140188 -106.37400766 190.49236027 -116.69628906 200.80615234 C-117.33340433 201.44274216 -117.97051959 202.07933198 -118.62694138 202.7352124 C-121.82340202 205.92906281 -125.01982125 209.12295466 -128.2162199 212.31686711 C-154.70023081 238.78017142 -181.19148106 265.23621885 -207.6875 291.6875 C-206.15133734 294.9142582 -204.54282616 297.07186942 -201.99145508 299.59472656 C-201.23339066 300.34941223 -200.47532623 301.1040979 -199.69429016 301.88165283 C-198.87349472 302.68898865 -198.05269928 303.49632446 -197.20703125 304.328125 C-196.36081711 305.16913757 -195.51460297 306.01015015 -194.64274597 306.87664795 C-191.93319471 309.56838337 -189.21707923 312.25336526 -186.5 314.9375 C-183.80160238 317.60816362 -181.10471276 320.28030522 -178.41081238 322.95550537 C-176.73516586 324.61902597 -175.05685397 326.2798676 -173.3754425 327.93756104 C-172.60161728 328.70485535 -171.82779205 329.47214966 -171.03051758 330.26269531 C-170.35926346 330.92569641 -169.68800934 331.58869751 -168.99641418 332.27178955 C-167.09284281 334.26340851 -165.29458831 336.28862695 -163.49944019 338.37598038 C-159.94761993 342.44380009 -156.21968054 346.28500906 -152.38754272 350.08752441 C-151.68680213 350.78700274 -150.98606153 351.48648107 -150.26408637 352.2071557 C-147.93673275 354.52917072 -145.60581311 356.84757184 -143.27490234 359.16601562 C-141.59703609 360.83868374 -139.91941495 362.51159775 -138.24201965 364.18473816 C-134.6399116 367.77693398 -131.03634705 371.36766002 -127.4317131 374.95732117 C-121.7301301 380.63577772 -116.03347391 386.31915831 -110.33779907 392.00354004 C-108.38507995 393.95225873 -106.43232669 395.90094321 -104.47956276 397.849617 C-103.74775904 398.57989188 -103.74775904 398.57989188 -103.0011714 399.32491979 C-97.45999439 404.85437711 -91.91773608 410.38275005 -86.375 415.91064453 C-85.86887494 416.41541716 -85.36274987 416.92018979 -84.84128769 417.44025856 C-76.632261 425.62708573 -68.41940553 433.81006371 -60.20559065 441.99208647 C-51.75752808 450.40773099 -43.31525625 458.82915555 -34.87788546 467.25551939 C-29.21949299 472.90606209 -23.55436179 478.54971911 -17.88447165 484.18872833 C-14.35805037 487.69913036 -10.83795651 491.2158239 -7.31963158 494.73433876 C-5.68923378 496.36231736 -4.05626209 497.98772301 -2.42051506 499.61032677 C-0.18448534 501.82913844 2.04204069 504.05708268 4.26651001 506.28747559 C4.91252312 506.92406806 5.55853624 507.56066052 6.2241255 508.21654367 C11.92328911 513.96647614 16.11575014 520.03681189 18.5625 527.8125 C18.87703125 528.78445313 19.1915625 529.75640625 19.515625 530.7578125 C22.92124329 543.27846799 21.49635162 556.30966636 15.69921875 567.91796875 C14.01854123 570.61972308 12.24196395 573.15879725 10.3125 575.6875 C9.62027344 576.66783203 9.62027344 576.66783203 8.9140625 577.66796875 C1.54914652 587.31047435 -10.66386653 592.67262641 -22.37890625 594.3984375 C-36.55039967 595.63656089 -49.45760275 592.4441828 -60.6875 583.6875 C-67.84338386 577.54411294 -74.55757251 570.9640958 -81.22001648 564.29542542 C-82.24227908 563.2757538 -83.26475352 562.25629452 -84.28741866 561.23702663 C-87.06972769 558.46270372 -89.84897152 555.68532858 -92.62766135 552.90738142 C-95.63543599 549.90147192 -98.64605185 546.89841015 -101.65625 543.89492798 C-108.22272589 537.34197216 -114.78547867 530.78529632 -121.34740424 524.2277844 C-125.4486241 520.12933551 -129.55057722 516.03162105 -133.65265846 511.93403435 C-145.02372667 500.57514637 -156.39385654 489.21532097 -167.76053143 477.85203648 C-168.48641926 477.12636821 -169.2123071 476.40069993 -169.96019154 475.65304172 C-171.05150594 474.56205473 -171.05150594 474.56205473 -172.1648671 473.4490276 C-173.63896259 471.97537557 -175.11305962 470.5017251 -176.5871582 469.02807617 C-177.31834886 468.29710694 -178.04953952 467.56613771 -178.80288748 466.8130179 C-190.66136681 454.95849002 -202.52659018 443.11073685 -214.39472129 431.26587261 C-226.59693651 419.08738546 -238.79350414 406.90326613 -250.98444396 394.71349186 C-257.82250873 387.87634258 -264.66295643 381.04161629 -271.50964928 374.21310616 C-277.33612684 368.40204863 -283.15741306 362.58585224 -288.97206076 356.76295657 C-291.93624059 353.79487816 -294.90275857 350.82924353 -297.87591743 347.87015724 C-300.60191122 345.15694826 -303.32077862 342.43679742 -306.03433392 339.71115004 C-307.47315369 338.26946405 -308.91931294 336.83511422 -310.36579245 335.40111357 C-317.43261654 328.2806487 -323.8575973 320.81611413 -327.5625 311.375 C-328.14644531 309.92673828 -328.14644531 309.92673828 -328.7421875 308.44921875 C-333.15407956 295.5599308 -331.02578637 281.79924367 -325.5625 269.625 C-320.20248541 259.66340366 -310.9963531 251.84687451 -303.06764221 243.92047119 C-302.02322419 242.87274458 -300.979016 241.82480877 -299.93499702 240.77668452 C-297.09226362 237.92403808 -294.24648205 235.07445033 -291.40012348 232.22542167 C-288.32061494 229.14197854 -285.24393069 226.05571923 -282.16680908 222.96989441 C-274.75373264 215.53715396 -267.33589811 208.10917101 -259.91744247 200.68180001 C-256.41830808 197.17827089 -252.91965833 193.67425787 -249.42094231 190.17031097 C-237.78437683 178.5167522 -226.14656328 166.86444195 -214.50512791 155.21574783 C-211.49160896 152.20031926 -208.4780954 149.18488531 -205.46459961 146.16943359 C-204.71568669 145.42003693 -203.96677377 144.67064027 -203.19516652 143.89853463 C-191.04824881 131.74330633 -178.90988171 119.57957648 -166.77504016 107.41229346 C-154.30008197 94.90425775 -141.81759988 82.40377089 -129.32768959 69.91066527 C-122.32154281 62.90235533 -115.31871129 55.89080193 -108.32428169 48.8707962 C-102.37234062 42.8971397 -96.41360513 36.9303669 -90.44593782 30.97241911 C-87.40366299 27.93468486 -84.36468503 24.89383798 -81.33440971 21.84412956 C-78.55671863 19.04877957 -75.76983361 16.26294181 -72.97555684 13.48417398 C-71.97014315 12.48113202 -70.96805242 11.47474487 -69.96979351 10.464582 C-50.48604494 -9.23690756 -24.30169058 -15.57800678 0 0 Z " fill="#C8E83F" transform="translate(375.6875,707.3125)"/>
</svg>
